<?xml version="1.0" encoding="UTF-8"?>
<svg width="550px" height="244px" viewBox="0 0 550 244" xmlns="http://www.w3.org/2000/svg" xmlns:xlink="http://www.w3.org/1999/xlink" version="1.1">
 <!-- Generated by Pixelmator Pro 1.5.4 -->
 <g id="group">
  <g id="group-1">
   <g id="group-2">
    <g id="group-3">
     <path id="Path" d="M159.508 92.94 C148.75 93.832 137.308 91.251 127.062 95.558 118.011 99.675 111.048 108.954 111.105 119.105 110.441 127.605 112.983 137.927 105.963 144.454 100.366 150.886 90.917 147.547 84.067 151.133 79.608 153.562 78.565 158.855 77.104 163.257 88.204 162.707 100.138 165.306 110.612 160.582 119.511 156.066 126.247 146.636 125.677 136.409 126.094 128.269 124.178 118.479 130.686 112.16 135.904 106.354 144.328 108.251 151.083 106.183 156.415 104.172 158.236 98.404 160.001 93.546 L160.248 92.92 Z" fill="#676767" fill-opacity="1" stroke="none"/>
    </g>
    <path id="Path-1" d="M122.678 92.921 L65.056 92.921 C65.056 92.921 65.053 93.57 65.231 94.599 65.964 98.612 69.822 108.459 89.877 108.742 91.055 108.716 92.232 108.696 93.404 108.707 93.556 121.514 93.385 134.322 93.499 147.129 97.427 145.877 101.468 144.245 103.916 140.697 109.665 133.449 106.079 123.563 107.521 115.158 107.922 109.042 111.033 103.805 115.18 99.517 L120.252 95.056 C120.449 94.907 120.643 94.754 120.841 94.609 120.814 94.609 120.787 94.609 120.76 94.609 Z" fill="#1072ba" fill-opacity="1" stroke="none"/>
   </g>
   <path id="Path-2" d="M164.877 71.346 C147.101 54.9 121.434 47.858 97.717 52.629 65.238 58.57 38.746 87.585 36.108 120.569 32.392 152.153 50.696 184.632 79.551 197.913 111.938 213.717 154.601 203.234 175.268 173.508 197.884 143.162 193.457 96.416 164.877 71.346 Z M99.415 196.055 C68.496 190.412 43.792 161.443 43.77 129.904 42.325 100.086 63.175 71.529 91.365 62.515 119.578 52.881 152.928 64.258 169.581 88.939 L169.619 88.938 C173.053 94.12 176.619 101.003 179.337 109.853 183.057 123.229 182.892 137.639 178.091 150.801 167.699 182.453 132.123 203.395 99.415 196.055 Z" fill="#1072ba" fill-opacity="1" stroke="none"/>
  </g>
  <g id="group-4">
   <g id="group-5">
    <path id="Path-3" d="M244.457 100.72 L227.97 100.72 227.97 135.287 220.738 135.287 220.738 100.72 204.19 100.72 204.19 93.427 244.457 93.427 Z" fill="#1072ba" fill-opacity="1" stroke="none"/>
    <path id="Path-4" d="M285.582 135.288 L249.421 135.288 249.421 93.427 285.582 93.427 285.582 100.72 256.714 100.72 256.714 127.994 285.582 127.994 Z M283.682 117.698 L259.779 117.698 259.779 110.404 283.682 110.404 Z" fill="#1072ba" fill-opacity="1" stroke="none"/>
    <path id="Path-5" d="M339.394 93.427 L318.616 121.436 318.616 135.288 311.384 135.288 311.384 121.314 290.056 93.427 299.433 93.427 315.184 114.021 329.955 93.427 Z" fill="#1072ba" fill-opacity="1" stroke="none"/>
    <path id="Path-6" d="M378.925 135.288 L342.825 135.288 342.825 93.427 350.119 93.427 350.119 127.994 378.925 127.994 Z" fill="#1072ba" fill-opacity="1" stroke="none"/>
    <path id="Path-7" d="M438.193 135.288 L428.815 135.227 421.767 123.521 401.909 123.521 406.322 116.289 417.416 116.289 410.122 104.215 391.245 135.228 381.868 135.228 404.607 97.412 C405.178 96.431 405.975 95.533 406.997 94.715 408.222 93.776 409.325 93.305 410.306 93.305 411.368 93.305 412.471 93.755 413.616 94.654 414.597 95.431 415.394 96.35 416.006 97.412 Z" fill="#1072ba" fill-opacity="1" stroke="none"/>
    <path id="Path-8" d="M486.488 122.355 C486.488 126.319 485.078 129.506 482.259 131.916 479.563 134.164 476.192 135.287 472.147 135.287 L440.215 135.287 440.215 127.993 472.147 127.993 C474.148 127.993 475.885 127.544 477.356 126.644 479.031 125.541 479.87 124.05 479.87 122.17 479.87 120.291 479.012 118.84 477.295 117.818 475.864 116.96 474.148 116.531 472.147 116.531 L452.411 116.531 C448.774 116.531 445.73 115.53 443.279 113.528 440.664 111.362 439.357 108.502 439.357 104.947 439.357 101.434 440.665 98.594 443.279 96.428 445.731 94.427 448.774 93.425 452.411 93.425 L483.975 93.425 483.975 100.718 452.411 100.718 C451.022 100.718 449.837 101.107 448.856 101.883 447.875 102.66 447.385 103.701 447.385 105.009 447.385 106.357 447.875 107.399 448.856 108.134 449.837 108.869 451.021 109.237 452.411 109.237 L472.147 109.237 C476.192 109.237 479.563 110.402 482.259 112.73 485.078 115.184 486.488 118.393 486.488 122.355 Z" fill="#1072ba" fill-opacity="1" stroke="none"/>
   </g>
   <g id="group-6">
    <g id="group-7">
     <path id="Path-9" d="M276.584 157.535 C276.584 159.187 275.997 160.515 274.822 161.519 273.699 162.456 272.294 162.923 270.609 162.923 L257.305 162.923 257.305 159.884 270.609 159.884 C271.443 159.884 272.167 159.697 272.78 159.322 273.478 158.863 273.827 158.241 273.827 157.458 273.827 156.675 273.469 156.07 272.755 155.645 272.159 155.288 271.444 155.109 270.61 155.109 L262.388 155.109 C260.872 155.109 259.604 154.692 258.583 153.858 257.493 152.956 256.949 151.764 256.949 150.283 256.949 148.819 257.493 147.636 258.583 146.734 259.604 145.9 260.873 145.482 262.388 145.482 L275.539 145.482 275.539 148.521 262.388 148.521 C261.809 148.521 261.315 148.683 260.907 149.006 260.498 149.329 260.294 149.764 260.294 150.308 260.294 150.869 260.498 151.304 260.907 151.61 261.315 151.917 261.809 152.07 262.388 152.07 L270.61 152.07 C272.296 152.07 273.7 152.555 274.823 153.525 275.997 154.547 276.584 155.884 276.584 157.535 Z" fill="#676767" fill-opacity="1" stroke="none"/>
     <path id="Path-10" d="M301.251 154.011 C301.251 156.581 300.425 158.709 298.774 160.395 297.123 162.081 295.02 162.923 292.466 162.923 L287.589 162.923 C285.052 162.923 282.954 162.081 281.294 160.395 279.634 158.71 278.805 156.581 278.805 154.011 278.805 151.457 279.626 149.397 281.269 147.831 282.912 146.265 285.019 145.481 287.589 145.481 L292.466 145.481 C295.054 145.481 297.164 146.264 298.799 147.831 300.435 149.398 301.251 151.458 301.251 154.011 Z M298.239 154.267 C298.239 152.582 297.698 151.203 296.617 150.13 295.536 149.057 294.153 148.522 292.468 148.522 L287.591 148.522 C285.922 148.522 284.548 149.058 283.467 150.13 282.386 151.203 281.846 152.582 281.846 154.267 281.846 155.935 282.386 157.289 283.467 158.327 284.548 159.366 285.922 159.885 287.591 159.885 L292.468 159.885 C294.154 159.885 295.536 159.366 296.617 158.327 297.698 157.289 298.239 155.935 298.239 154.267 Z" fill="#676767" fill-opacity="1" stroke="none"/>
     <path id="Path-11" d="M318.029 162.923 L302.988 162.923 302.988 145.482 306.027 145.482 306.027 159.885 318.029 159.885 Z" fill="#676767" fill-opacity="1" stroke="none"/>
     <path id="Path-12" d="M339.887 155.083 C339.887 157.892 339.045 159.944 337.359 161.237 335.878 162.36 333.682 162.923 330.77 162.923 L329.724 162.923 C326.812 162.923 324.617 162.361 323.135 161.237 321.45 159.944 320.607 157.892 320.607 155.083 L320.607 145.481 323.646 145.481 323.646 155.083 C323.646 157.177 324.37 158.565 325.817 159.246 326.753 159.671 328.405 159.884 330.771 159.884 332.746 159.884 334.193 159.586 335.113 158.99 336.27 158.241 336.849 156.939 336.849 155.083 L336.849 145.481 339.888 145.481 339.888 155.083 Z" fill="#676767" fill-opacity="1" stroke="none"/>
     <path id="Path-13" d="M359.294 148.521 L352.425 148.521 352.425 162.923 349.412 162.923 349.412 148.521 342.517 148.521 342.517 145.482 359.294 145.482 Z" fill="#676767" fill-opacity="1" stroke="none"/>
     <path id="Path-14" d="M364.887 162.923 L361.848 162.923 361.848 145.482 364.887 145.482 Z" fill="#676767" fill-opacity="1" stroke="none"/>
     <path id="Path-15" d="M391.035 154.011 C391.035 156.581 390.209 158.709 388.558 160.395 386.907 162.081 384.805 162.923 382.251 162.923 L377.374 162.923 C374.837 162.923 372.739 162.081 371.079 160.395 369.419 158.71 368.589 156.581 368.589 154.011 368.589 151.457 369.41 149.397 371.053 147.831 372.695 146.265 374.803 145.481 377.373 145.481 L382.25 145.481 C384.838 145.481 386.948 146.264 388.583 147.831 390.218 149.398 391.035 151.458 391.035 154.011 Z M388.023 154.267 C388.023 152.582 387.482 151.203 386.401 150.13 385.32 149.057 383.937 148.522 382.252 148.522 L377.375 148.522 C375.706 148.522 374.332 149.058 373.251 150.13 372.17 151.203 371.63 152.582 371.63 154.267 371.63 155.935 372.17 157.289 373.251 158.327 374.332 159.366 375.706 159.885 377.375 159.885 L382.252 159.885 C383.937 159.885 385.32 159.366 386.401 158.327 387.482 157.289 388.023 155.935 388.023 154.267 Z" fill="#676767" fill-opacity="1" stroke="none"/>
     <path id="Path-16" d="M410.953 161.417 C410.953 162.54 410.57 163.103 409.804 163.103 409.243 163.103 408.613 162.754 407.915 162.056 L396.73 150.82 396.73 162.924 393.717 162.924 393.717 146.99 C393.717 146.581 393.827 146.228 394.049 145.93 394.27 145.632 394.585 145.483 394.994 145.483 395.555 145.483 396.134 145.781 396.73 146.377 L407.915 157.588 407.915 145.484 410.954 145.484 410.954 161.417 Z" fill="#676767" fill-opacity="1" stroke="none"/>
     <path id="Path-17" d="M433.731 157.535 C433.731 159.187 433.144 160.515 431.969 161.519 430.846 162.456 429.441 162.923 427.756 162.923 L414.452 162.923 414.452 159.884 427.756 159.884 C428.59 159.884 429.314 159.697 429.927 159.322 430.625 158.863 430.974 158.241 430.974 157.458 430.974 156.675 430.617 156.07 429.901 155.645 429.305 155.288 428.59 155.109 427.756 155.109 L419.533 155.109 C418.017 155.109 416.75 154.692 415.728 153.858 414.639 152.956 414.094 151.764 414.094 150.283 414.094 148.819 414.639 147.636 415.728 146.734 416.749 145.9 418.017 145.482 419.533 145.482 L432.685 145.482 432.685 148.521 419.533 148.521 C418.954 148.521 418.461 148.683 418.052 149.006 417.643 149.329 417.439 149.764 417.439 150.308 417.439 150.869 417.643 151.304 418.052 151.61 418.461 151.917 418.954 152.07 419.533 152.07 L427.756 152.07 C429.441 152.07 430.846 152.555 431.969 153.525 433.144 154.547 433.731 155.884 433.731 157.535 Z" fill="#676767" fill-opacity="1" stroke="none"/>
    </g>
    <path id="Path-18" d="M204.19 153.107 L249.421 153.107 249.421 155.478 204.19 155.478 Z" fill="#676767" fill-opacity="1" stroke="none"/>
    <path id="Path-19" d="M441.257 153.107 L486.488 153.107 486.488 155.478 441.257 155.478 Z" fill="#676767" fill-opacity="1" stroke="none"/>
   </g>
  </g>
 </g>
</svg>
